<mxfile host="Electron" agent="Mozilla/5.0 (Windows NT 10.0; Win64; x64) AppleWebKit/537.36 (KHTML, like Gecko) draw.io/26.0.16 Chrome/132.0.6834.196 Electron/34.2.0 Safari/537.36" version="26.0.16">
  <diagram name="Page-1" id="jc_JW6g522YRJNJkjJi_">
    <mxGraphModel dx="1833" dy="1079" grid="0" gridSize="10" guides="1" tooltips="1" connect="1" arrows="1" fold="1" page="1" pageScale="1" pageWidth="1772" pageHeight="787" math="1" shadow="0">
      <root>
        <mxCell id="0" />
        <mxCell id="1" parent="0" />
        <mxCell id="h03nUzt6KyVFCFQYHyld-10" value="Validation (15%)" style="rounded=0;whiteSpace=wrap;html=1;fontSize=23;fillColor=#ffe6cc;strokeColor=#d79b00;fontFamily=Source Sans Pro;" vertex="1" parent="1">
          <mxGeometry x="19" y="544.94" width="179.13" height="97.2439" as="geometry" />
        </mxCell>
        <mxCell id="h03nUzt6KyVFCFQYHyld-13" value="&lt;span&gt;Train (70%)&lt;/span&gt;" style="rounded=0;whiteSpace=wrap;html=1;fillColor=#fff2cc;strokeColor=#d6b656;fontFamily=Source Sans Pro;fontSize=23;" vertex="1" parent="1">
          <mxGeometry x="19" y="91" width="179.13" height="454" as="geometry" />
        </mxCell>
        <mxCell id="h03nUzt6KyVFCFQYHyld-14" value="Test (15%)" style="rounded=0;whiteSpace=wrap;html=1;fontSize=23;fillColor=#f8cecc;strokeColor=#b85450;fontFamily=Source Sans Pro;" vertex="1" parent="1">
          <mxGeometry x="19" y="672" width="179.13" height="97.2439" as="geometry" />
        </mxCell>
        <mxCell id="h03nUzt6KyVFCFQYHyld-15" value="&lt;font&gt;Backbone architecture&lt;/font&gt;" style="rounded=1;whiteSpace=wrap;html=1;fontFamily=Source Sans Pro;fontSize=23;" vertex="1" parent="1">
          <mxGeometry x="915" y="232.9" width="274" height="130.5" as="geometry" />
        </mxCell>
        <mxCell id="h03nUzt6KyVFCFQYHyld-27" value="AUGGCCUACG...; 12; 1" style="text;html=1;align=left;verticalAlign=middle;whiteSpace=wrap;rounded=0;fontFamily=Source Sans Pro;fontSize=15;fontColor=#808080;" vertex="1" parent="1">
          <mxGeometry x="27.07" y="164" width="163" height="30" as="geometry" />
        </mxCell>
        <mxCell id="h03nUzt6KyVFCFQYHyld-28" value="&lt;font face=&quot;Source Sans Pro&quot;&gt;AUGCAUGGUA...; 10; 1&lt;/font&gt;" style="text;html=1;align=left;verticalAlign=middle;whiteSpace=wrap;rounded=0;fontSize=15;fontColor=#808080;" vertex="1" parent="1">
          <mxGeometry x="27.07" y="121" width="163" height="30" as="geometry" />
        </mxCell>
        <mxCell id="h03nUzt6KyVFCFQYHyld-29" value="&lt;font face=&quot;Source Sans Pro&quot;&gt;&lt;span style=&quot;font-size: 15px;&quot;&gt;AUGGUAACCU...; 28; 0&lt;/span&gt;&lt;/font&gt;" style="text;html=1;align=left;verticalAlign=middle;whiteSpace=wrap;rounded=0;fontSize=15;fontColor=#808080;" vertex="1" parent="1">
          <mxGeometry x="27.07" y="143" width="163" height="30" as="geometry" />
        </mxCell>
        <mxCell id="h03nUzt6KyVFCFQYHyld-31" value="RNA data" style="text;html=1;align=center;verticalAlign=middle;whiteSpace=wrap;rounded=0;fontFamily=Source Sans Pro;fontSize=23;fontStyle=1" vertex="1" parent="1">
          <mxGeometry x="29.349999999999994" y="38" width="158.43" height="30" as="geometry" />
        </mxCell>
        <mxCell id="h03nUzt6KyVFCFQYHyld-32" value="&lt;font style=&quot;font-size: 16px;&quot;&gt;- MLP&lt;/font&gt;&lt;div&gt;&lt;font style=&quot;font-size: 16px;&quot;&gt;- CNN&lt;/font&gt;&lt;/div&gt;&lt;div&gt;&lt;font style=&quot;font-size: 16px;&quot;&gt;- LegNet&lt;/font&gt;&lt;/div&gt;&lt;div&gt;&lt;font style=&quot;font-size: 16px;&quot;&gt;- LSTM&lt;/font&gt;&lt;/div&gt;&lt;div&gt;&lt;font style=&quot;font-size: 16px;&quot;&gt;- GRU&lt;/font&gt;&lt;/div&gt;&lt;div&gt;&lt;font style=&quot;font-size: 16px;&quot;&gt;- xLSTM&lt;/font&gt;&lt;/div&gt;&lt;div&gt;&lt;font style=&quot;font-size: 16px;&quot;&gt;- Transformer&lt;/font&gt;&lt;/div&gt;&lt;div&gt;&lt;font style=&quot;font-size: 16px;&quot;&gt;- Mamba&lt;/font&gt;&lt;/div&gt;" style="text;html=1;align=left;verticalAlign=middle;whiteSpace=wrap;rounded=0;" vertex="1" parent="1">
          <mxGeometry x="999" y="386.9" width="106" height="153.02" as="geometry" />
        </mxCell>
        <mxCell id="h03nUzt6KyVFCFQYHyld-54" value="&lt;font&gt;Embeddings&amp;nbsp;&lt;/font&gt;&lt;div&gt;&lt;font&gt;Layer&lt;/font&gt;&lt;/div&gt;" style="rounded=0;whiteSpace=wrap;html=1;fontFamily=Source Sans Pro;fontSize=20;fillColor=#dae8fc;strokeColor=#6c8ebf;" vertex="1" parent="1">
          <mxGeometry x="414" y="172.9" width="120" height="60" as="geometry" />
        </mxCell>
        <mxCell id="h03nUzt6KyVFCFQYHyld-55" value="&lt;font&gt;Embeddings&amp;nbsp;&lt;/font&gt;&lt;div&gt;&lt;font&gt;Layer&lt;/font&gt;&lt;/div&gt;" style="rounded=0;whiteSpace=wrap;html=1;fontFamily=Source Sans Pro;fontSize=20;fillColor=#dae8fc;strokeColor=#6c8ebf;" vertex="1" parent="1">
          <mxGeometry x="414" y="403" width="120" height="60" as="geometry" />
        </mxCell>
        <mxCell id="h03nUzt6KyVFCFQYHyld-74" value="" style="group" vertex="1" connectable="0" parent="1">
          <mxGeometry x="632" y="342.9371428571428" width="25" height="180.11714285714294" as="geometry" />
        </mxCell>
        <mxCell id="h03nUzt6KyVFCFQYHyld-20" value="" style="rounded=0;whiteSpace=wrap;html=1;fillColor=#72C6ED;" vertex="1" parent="h03nUzt6KyVFCFQYHyld-74">
          <mxGeometry y="131.29428571428576" width="25.000000000000004" height="16.357142857142858" as="geometry" />
        </mxCell>
        <mxCell id="h03nUzt6KyVFCFQYHyld-21" value="" style="rounded=0;whiteSpace=wrap;html=1;fillColor=#B2E8F6;" vertex="1" parent="h03nUzt6KyVFCFQYHyld-74">
          <mxGeometry y="147.65142857142865" width="25.000000000000004" height="16.357142857142858" as="geometry" />
        </mxCell>
        <mxCell id="h03nUzt6KyVFCFQYHyld-37" value="" style="rounded=0;whiteSpace=wrap;html=1;fillColor=#B2E8F6;" vertex="1" parent="h03nUzt6KyVFCFQYHyld-74">
          <mxGeometry y="65.85428571428571" width="25.000000000000004" height="16.357142857142858" as="geometry" />
        </mxCell>
        <mxCell id="h03nUzt6KyVFCFQYHyld-38" value="" style="rounded=0;whiteSpace=wrap;html=1;fillColor=#72C6ED;" vertex="1" parent="h03nUzt6KyVFCFQYHyld-74">
          <mxGeometry y="82.2114285714286" width="25.000000000000004" height="16.357142857142858" as="geometry" />
        </mxCell>
        <mxCell id="h03nUzt6KyVFCFQYHyld-39" value="" style="rounded=0;whiteSpace=wrap;html=1;fillColor=#B2E8F6;" vertex="1" parent="h03nUzt6KyVFCFQYHyld-74">
          <mxGeometry y="33.13857142857148" width="25.000000000000004" height="16.357142857142858" as="geometry" />
        </mxCell>
        <mxCell id="h03nUzt6KyVFCFQYHyld-40" value="" style="rounded=0;whiteSpace=wrap;html=1;fillColor=#2679C0;" vertex="1" parent="h03nUzt6KyVFCFQYHyld-74">
          <mxGeometry y="49.4957142857142" width="25.000000000000004" height="16.357142857142858" as="geometry" />
        </mxCell>
        <mxCell id="h03nUzt6KyVFCFQYHyld-41" value="" style="rounded=0;whiteSpace=wrap;html=1;fillColor=#72C6ED;" vertex="1" parent="h03nUzt6KyVFCFQYHyld-74">
          <mxGeometry y="98.57285714285712" width="25.000000000000004" height="16.357142857142858" as="geometry" />
        </mxCell>
        <mxCell id="h03nUzt6KyVFCFQYHyld-42" value="" style="rounded=0;whiteSpace=wrap;html=1;fillColor=#2679C0;" vertex="1" parent="h03nUzt6KyVFCFQYHyld-74">
          <mxGeometry y="163.76000000000005" width="25.000000000000004" height="16.357142857142858" as="geometry" />
        </mxCell>
        <mxCell id="h03nUzt6KyVFCFQYHyld-46" value="" style="rounded=0;whiteSpace=wrap;html=1;fillColor=#2679C0;" vertex="1" parent="h03nUzt6KyVFCFQYHyld-74">
          <mxGeometry y="114.93285714285713" width="25.000000000000004" height="16.357142857142858" as="geometry" />
        </mxCell>
        <mxCell id="h03nUzt6KyVFCFQYHyld-47" value="" style="rounded=0;whiteSpace=wrap;html=1;fillColor=#B2E8F6;" vertex="1" parent="h03nUzt6KyVFCFQYHyld-74">
          <mxGeometry width="25.000000000000004" height="16.357142857142858" as="geometry" />
        </mxCell>
        <mxCell id="h03nUzt6KyVFCFQYHyld-48" value="" style="rounded=0;whiteSpace=wrap;html=1;fillColor=#2679C0;" vertex="1" parent="h03nUzt6KyVFCFQYHyld-74">
          <mxGeometry y="16.357142857142833" width="25.000000000000004" height="16.357142857142858" as="geometry" />
        </mxCell>
        <mxCell id="h03nUzt6KyVFCFQYHyld-75" value="" style="group" vertex="1" connectable="0" parent="1">
          <mxGeometry x="632" y="112.94" width="25" height="179.9285714285714" as="geometry" />
        </mxCell>
        <mxCell id="h03nUzt6KyVFCFQYHyld-57" value="" style="rounded=0;whiteSpace=wrap;html=1;fillColor=#B2E8F6;" vertex="1" parent="h03nUzt6KyVFCFQYHyld-75">
          <mxGeometry y="147.21428571428572" width="25.000000000000004" height="16.357142857142858" as="geometry" />
        </mxCell>
        <mxCell id="h03nUzt6KyVFCFQYHyld-58" value="" style="rounded=0;whiteSpace=wrap;html=1;fillColor=#72C6ED;" vertex="1" parent="h03nUzt6KyVFCFQYHyld-75">
          <mxGeometry y="163.57142857142856" width="25.000000000000004" height="16.357142857142858" as="geometry" />
        </mxCell>
        <mxCell id="h03nUzt6KyVFCFQYHyld-60" value="" style="rounded=0;whiteSpace=wrap;html=1;fillColor=#B2E8F6;" vertex="1" parent="h03nUzt6KyVFCFQYHyld-75">
          <mxGeometry y="49.071428571428555" width="25.000000000000004" height="16.357142857142858" as="geometry" />
        </mxCell>
        <mxCell id="h03nUzt6KyVFCFQYHyld-61" value="" style="rounded=0;whiteSpace=wrap;html=1;fillColor=#72C6ED;" vertex="1" parent="h03nUzt6KyVFCFQYHyld-75">
          <mxGeometry y="65.42857142857144" width="25.000000000000004" height="16.357142857142858" as="geometry" />
        </mxCell>
        <mxCell id="h03nUzt6KyVFCFQYHyld-62" value="" style="rounded=0;whiteSpace=wrap;html=1;fillColor=#B2E8F6;" vertex="1" parent="h03nUzt6KyVFCFQYHyld-75">
          <mxGeometry y="81.78571428571428" width="25.000000000000004" height="16.357142857142858" as="geometry" />
        </mxCell>
        <mxCell id="h03nUzt6KyVFCFQYHyld-63" value="" style="rounded=0;whiteSpace=wrap;html=1;fillColor=#2679C0;" vertex="1" parent="h03nUzt6KyVFCFQYHyld-75">
          <mxGeometry y="98.14285714285714" width="25.000000000000004" height="16.357142857142858" as="geometry" />
        </mxCell>
        <mxCell id="h03nUzt6KyVFCFQYHyld-64" value="" style="rounded=0;whiteSpace=wrap;html=1;fillColor=#72C6ED;movable=1;resizable=1;rotatable=1;deletable=1;editable=1;locked=0;connectable=1;" vertex="1" parent="h03nUzt6KyVFCFQYHyld-75">
          <mxGeometry y="114.5" width="25.000000000000004" height="16.357142857142858" as="geometry" />
        </mxCell>
        <mxCell id="h03nUzt6KyVFCFQYHyld-65" value="" style="rounded=0;whiteSpace=wrap;html=1;fillColor=#2679C0;movable=1;resizable=1;rotatable=1;deletable=1;editable=1;locked=0;connectable=1;" vertex="1" parent="h03nUzt6KyVFCFQYHyld-75">
          <mxGeometry y="130.8571428571429" width="25.000000000000004" height="16.357142857142858" as="geometry" />
        </mxCell>
        <mxCell id="h03nUzt6KyVFCFQYHyld-66" value="" style="rounded=0;whiteSpace=wrap;html=1;fillColor=#2679C0;" vertex="1" parent="h03nUzt6KyVFCFQYHyld-75">
          <mxGeometry width="25.000000000000004" height="16.357142857142858" as="geometry" />
        </mxCell>
        <mxCell id="h03nUzt6KyVFCFQYHyld-67" value="" style="rounded=0;whiteSpace=wrap;html=1;fillColor=#B2E8F6;" vertex="1" parent="h03nUzt6KyVFCFQYHyld-75">
          <mxGeometry y="16.357142857142804" width="25.000000000000004" height="16.357142857142858" as="geometry" />
        </mxCell>
        <mxCell id="h03nUzt6KyVFCFQYHyld-68" value="" style="rounded=0;whiteSpace=wrap;html=1;fillColor=#2679C0;" vertex="1" parent="h03nUzt6KyVFCFQYHyld-75">
          <mxGeometry y="32.714285714285666" width="25.000000000000004" height="16.357142857142858" as="geometry" />
        </mxCell>
        <mxCell id="h03nUzt6KyVFCFQYHyld-76" value="&lt;font face=&quot;Source Sans Pro&quot;&gt;sequence; tissue;&amp;nbsp; target&lt;/font&gt;" style="text;html=1;align=left;verticalAlign=middle;whiteSpace=wrap;rounded=0;fontSize=15;fontColor=#808080;" vertex="1" parent="1">
          <mxGeometry x="27.07" y="96" width="163" height="30" as="geometry" />
        </mxCell>
      </root>
    </mxGraphModel>
  </diagram>
</mxfile>
